<svg width="24" height="24" viewBox="0 0 24 24" fill="none" xmlns="http://www.w3.org/2000/svg">
<path d="M11.0911 17.4C11.0911 16.9029 11.494 16.5 11.9911 16.5C12.4881 16.5 12.8911 16.9029 12.8911 17.4C12.8911 17.8971 12.4881 18.3 11.9911 18.3C11.494 18.3 11.0911 17.8971 11.0911 17.4Z" fill="black" fill-opacity="0.9"/>
<path d="M11.9911 6.00915C9.98467 6.00915 8.35363 7.64019 8.35363 9.64665H9.85363C9.85363 8.46862 10.8131 7.50915 11.9911 7.50915C13.1692 7.50915 14.1286 8.46862 14.1286 9.64665C14.1286 10.4533 13.4619 11.2621 12.5917 11.6156L12.5878 11.6172C11.7935 11.945 11.2412 12.7262 11.2412 13.6387V15H12.7412V13.6387C12.7412 13.3474 12.9142 13.106 13.1585 13.0044C14.3995 12.4993 15.6286 11.248 15.6286 9.64665C15.6286 7.64019 13.9976 6.00915 11.9911 6.00915Z" fill="black" fill-opacity="0.9"/>
<path d="M22.4912 12C22.4912 6.20101 17.7902 1.5 11.9912 1.5C6.19222 1.5 1.49121 6.20101 1.49121 12C1.49121 17.799 6.19222 22.5 11.9912 22.5C17.7902 22.5 22.4912 17.799 22.4912 12ZM20.9912 12C20.9912 16.9706 16.9618 21 11.9912 21C7.02065 21 2.99121 16.9706 2.99121 12C2.99121 7.02944 7.02065 3 11.9912 3C16.9618 3 20.9912 7.02944 20.9912 12Z" fill="black" fill-opacity="0.9"/>
</svg>
