<svg width="24" height="24" viewBox="0 0 24 24" fill="none" xmlns="http://www.w3.org/2000/svg">
<path d="M16.5002 12C16.5002 14.4853 14.4855 16.5 12.0002 16.5C9.51497 16.5 7.50025 14.4853 7.50025 12C7.50025 9.51472 9.51497 7.5 12.0002 7.5C14.4855 7.5 16.5002 9.51472 16.5002 12ZM15.0002 12C15.0002 10.3431 13.6571 9 12.0002 9C10.3434 9 9.00025 10.3431 9.00025 12C9.00025 13.6569 10.3434 15 12.0002 15C13.6571 15 15.0002 13.6569 15.0002 12Z" fill="black" fill-opacity="0.9"/>
<path d="M12.0002 1.875L21.0935 6.9375V17.0625L12.0002 22.125L2.90698 17.0625V6.9375L12.0002 1.875ZM4.40698 7.8192V16.1808L12.0002 20.4082L19.5935 16.1808V7.8192L12.0002 3.59179L4.40698 7.8192Z" fill="black" fill-opacity="0.9"/>
</svg>
