<svg width="24" height="24" viewBox="0 0 24 24" fill="none" xmlns="http://www.w3.org/2000/svg">
<path d="M3.43993 20.5601C3.72112 20.8413 4.10234 20.9995 4.5 21H19.5C19.8977 20.9995 20.2789 20.8413 20.5601 20.5601C20.8413 20.2789 20.9995 19.8977 21 19.5V12.75H19.5V19.5H4.5V4.5H11.25V3H4.5C4.10234 3.00054 3.72112 3.15874 3.43993 3.43993C3.15874 3.72112 3.00054 4.10234 3 4.5V19.5C3.00054 19.8977 3.15874 20.2789 3.43993 20.5601Z" fill="black" fill-opacity="0.9"/>
<path d="M13.5 4.5V3H20.25C20.6642 3 21 3.33579 21 3.75V10.5H19.5V5.5605L13.0605 12L12 10.9395L18.4395 4.5H13.5Z" fill="black" fill-opacity="0.9"/>
</svg>
